HIERARCHY
ROOT Hips
{
	OFFSET 0.00000 0.00000 0.00000
	CHANNELS 6 Xposition Yposition Zposition Zrotation Yrotation Xrotation 
	JOINT LHipJoint
	{
		OFFSET 0 0 0
		CHANNELS 3 Zrotation Yrotation Xrotation
		JOINT LeftHip
		{
			OFFSET 1.41261 -1.82971 0.84908
			CHANNELS 3 Zrotation Yrotation Xrotation
			JOINT LeftKnee
			{
				OFFSET 2.52554 -6.93888 0.00000
				CHANNELS 3 Zrotation Yrotation Xrotation
				JOINT LeftAnkle
				{
					OFFSET 2.56654 -7.05152 0.00000
					CHANNELS 3 Zrotation Yrotation Xrotation
					JOINT LeftToe
					{
						OFFSET 0.21698 -0.59616 1.85369
						CHANNELS 3 Zrotation Yrotation Xrotation
						End Site
						{
							OFFSET 0.00000 -0.00000 0.97832
						}
					}
				}
			}
		}
	}
	JOINT RHipJoint
	{
		OFFSET 0 0 0
		CHANNELS 3 Zrotation Yrotation Xrotation
		JOINT RightHip
		{
			OFFSET -1.12808 -1.82971 0.84907
			CHANNELS 3 Zrotation Yrotation Xrotation
			JOINT RightKnee
			{
				OFFSET -2.53425 -6.96280 0.00000
				CHANNELS 3 Zrotation Yrotation Xrotation
				JOINT RightAnkle
				{
					OFFSET -2.58413 -7.09983 0.00000
					CHANNELS 3 Zrotation Yrotation Xrotation
					JOINT RightToe
					{
						OFFSET -0.26437 -0.72636 1.92241
						CHANNELS 3 Zrotation Yrotation Xrotation
						End Site
						{
							OFFSET -0.00000 -0.00000 1.02667
						}
					}
				}
			}
		}
	}
	JOINT lowerback
	{
		OFFSET 0 0 0
		CHANNELS 3 Zrotation Yrotation Xrotation
		JOINT Chest
		{
			OFFSET -0.02096 2.02288 -0.14752
			CHANNELS 3 Zrotation Yrotation Xrotation
			JOINT Chest2
			{
				OFFSET 0.03477 2.03136 -0.02358
				CHANNELS 3 Zrotation Yrotation Xrotation
				JOINT lowerneck
				{
					OFFSET 0 0 0
					CHANNELS 3 Zrotation Yrotation Xrotation
					JOINT Neck
					{
						OFFSET 0.00174 1.74359 0.19336
						CHANNELS 3 Zrotation Yrotation Xrotation
						JOINT Head
						{
							OFFSET -0.03054 1.76140 -0.17751
							CHANNELS 3 Zrotation Yrotation Xrotation
							End Site
							{
								OFFSET -0.00863 1.77239 -0.08120
							}
						}
					}
				}
				JOINT LeftCollar
				{
					OFFSET 0 0 0
					CHANNELS 3 Zrotation Yrotation Xrotation
					JOINT LeftShoulder
					{
						OFFSET 3.68685 1.32687 -0.67367
CHANNELS 3 Zrotation Xrotation Yrotation
						JOINT LeftElbow
						{
OFFSET 0 -4.764680 -0.000000
CHANNELS 3 Zrotation Xrotation Yrotation
							JOINT LeftWrist
							{
OFFSET 0 -3.527120 -0.000000
CHANNELS 3 Zrotation Xrotation Yrotation
								JOINT lhand
								{
									OFFSET 0 0 0
CHANNELS 3 Zrotation Xrotation Yrotation
									JOINT LFingers
									{
OFFSET 0 -0.859560 -0.000000
CHANNELS 3 Zrotation Xrotation Yrotation
										End Site
										{
OFFSET 0 -0.693000 -0.000000
										}
									}
								}
								JOINT LThumb
								{
OFFSET 0 0.000000 0.000000
CHANNELS 3 Zrotation Xrotation Yrotation
									End Site
									{
OFFSET 0 -0.703580 0.703580
									}
								}
							}
						}
					}
				}
				JOINT RightCollar
				{
					OFFSET 0 0 0
					CHANNELS 3 Zrotation Yrotation Xrotation
					JOINT RightShoulder
					{
						OFFSET -3.31304 1.28268 -0.97357
CHANNELS 3 Zrotation Xrotation Yrotation
						JOINT RightElbow
						{
OFFSET 0 -4.905770 -0.000000
CHANNELS 3 Zrotation Xrotation Yrotation
							JOINT RightWrist
							{
OFFSET 0 -3.426920 0.000000
CHANNELS 3 Zrotation Xrotation Yrotation
								JOINT rhand
								{
									OFFSET 0 0 0
CHANNELS 3 Zrotation Xrotation Yrotation
									JOINT RFingers
									{
OFFSET 0 -0.740960 -0.000000
CHANNELS 3 Zrotation Xrotation Yrotation
										End Site
										{
OFFSET 0 -0.597380 -0.000000
										}
									}
								}
								JOINT RThumb
								{
OFFSET 0 0.000000 0.000000
CHANNELS 3 Zrotation Xrotation Yrotation
									End Site
									{
OFFSET 0 -0.606500 0.606500
									}
								}
							}
						}
					}
				}
			}
		}
	}
}
MOTION
Frames: 8
Frame Time: 0.008333333333333333
-0.428699 19.057170 12.669577 -0.651081 6.785027 -3.384350 0.000000 0.000000 0.000000 -20.135553 -4.918227 -17.348718 3.170375 10.965797 32.164687 -0.166301 -6.980582 3.443557 4.023859 -12.176224 -36.380633 0.000000 0.000000 0.000000 18.365595 5.638951 -18.811669 -4.115892 -12.312349 36.846991 -0.029809 1.808612 -2.768006 -0.511219 -4.534695 12.594483 -3.189403 1.478242 13.015198 1.240473 1.595946 2.716743 2.835759 0.835201 -4.556477 -2.710939 -0.768409 -14.995165 1.374555 -0.688080 20.169543 0.836862 -0.377055 8.796080 0.000000 0.000000 0.000000 -4.820579 23.232137 -9.725751 41.137278 -48.729427 19.289718 24.205067 -24.084608 22.398299 0.000000 0.000000 0.000000 -7.125000 0.000000 0.000000 -2.942108 5.690587 -2.639420 0.000000 0.000000 0.000000 -6.192386 12.274863 24.652192 -31.954124 -42.510613 -12.709868 -20.656215 -4.545464 37.349615 0.000000 0.000000 0.000000 7.125000 0.000000 0.000000 19.221314 68.272111 -10.892617
-0.436896 18.862910 12.858930 -0.521844 6.993881 -3.676050 0.000000 0.000000 0.000000 -20.696658 -4.158080 -17.995153 3.154725 10.941390 32.082462 -0.021103 -3.681147 4.367471 3.541377 -11.518672 -34.056099 0.000000 0.000000 0.000000 18.310385 6.627452 -19.011208 -4.014477 -12.179448 36.369974 -0.001428 1.195837 -0.731819 -0.716658 -5.397685 15.049248 -3.486010 1.418126 12.958994 1.204018 1.477639 2.832628 2.987478 0.776203 -4.401032 -2.690818 -0.702828 -14.771096 1.349465 -0.602439 20.124828 0.835185 -0.338364 8.737641 0.000000 0.000000 0.000000 -4.682336 23.389010 -10.232454 41.108835 -48.713280 19.268355 24.223201 -24.000023 22.531697 0.000000 0.000000 0.000000 -7.125000 0.000000 0.000000 -2.945524 5.545762 -2.650661 0.000000 0.000000 0.000000 -6.439558 12.090788 25.316575 -31.966172 -42.520239 -12.718003 -20.947046 -4.031992 37.576044 0.000000 0.000000 0.000000 7.125000 0.000000 0.000000 19.146541 68.570332 -10.977450
-0.442331 18.648702 13.052760 -0.638453 7.305074 -4.069813 0.000000 0.000000 0.000000 -20.919192 -3.556194 -18.506149 3.192952 11.000811 32.282831 0.062426 -2.252719 5.940454 3.393155 -11.304738 -33.315944 0.000000 0.000000 0.000000 18.395366 7.534337 -19.119238 -3.956551 -12.102137 36.094541 -0.011341 0.667663 1.386981 -1.086822 -6.548298 18.411362 -3.484550 1.302419 12.846758 1.237963 1.332200 2.985370 3.049070 0.698306 -4.168225 -2.632291 -0.628240 -14.495857 1.207503 -0.488727 20.011593 0.790406 -0.295529 8.646046 0.000000 0.000000 0.000000 -4.501766 23.409229 -10.859897 41.101611 -48.709179 19.262906 24.117611 -23.881564 22.545295 0.000000 0.000000 0.000000 -7.125000 0.000000 0.000000 -3.012984 5.550356 -2.711248 0.000000 0.000000 0.000000 -6.695903 11.870684 25.994773 -32.010823 -42.555781 -12.748132 -21.712329 -3.558307 37.249223 0.000000 0.000000 0.000000 7.125000 0.000000 0.000000 17.800927 68.503403 -10.164384
-0.447094 18.425912 13.247335 -0.829649 7.687976 -4.526257 0.000000 0.000000 0.000000 -21.026243 -2.996187 -19.061224 3.296190 11.156159 32.812511 0.132743 -1.242014 7.422887 3.269860 -11.118025 -32.680820 0.000000 0.000000 0.000000 18.509155 8.357078 -19.189369 -3.922641 -12.056713 35.932938 -0.036154 0.335640 3.508773 -1.444195 -7.584614 21.465474 -3.402053 1.155797 12.746090 1.293945 1.157235 3.153634 3.092015 0.604647 -3.922137 -2.554059 -0.545104 -14.207300 1.033754 -0.361242 19.875945 0.733066 -0.247719 8.544407 0.000000 0.000000 0.000000 -4.310118 23.446411 -11.526168 41.127382 -48.723777 19.282276 23.982354 -23.788286 22.543966 0.000000 0.000000 0.000000 -7.125000 0.000000 0.000000 -3.097319 5.576063 -2.785847 0.000000 0.000000 0.000000 -6.951648 11.637680 26.666400 -32.078159 -42.609292 -12.793676 -22.366212 -3.244022 36.832933 0.000000 0.000000 0.000000 7.125000 0.000000 0.000000 16.494318 68.316725 -9.332083
-0.451006 18.187372 13.442402 -1.134577 8.222998 -5.111644 0.000000 0.000000 0.000000 -20.943769 -2.493583 -19.773116 3.549759 11.531947 34.100600 0.188699 -0.710532 8.464797 3.104106 -10.859861 -31.810626 0.000000 0.000000 0.000000 18.652428 8.989044 -19.191046 -3.936739 -12.075717 36.000320 -0.087141 0.482080 5.611909 -1.716022 -8.234589 23.436267 -3.205868 0.947254 12.693116 1.384243 0.914845 3.350130 3.115676 0.476403 -3.666519 -2.437304 -0.442820 -13.900757 0.815398 -0.207225 19.704416 0.657113 -0.188410 8.427466 0.000000 0.000000 0.000000 -4.103438 23.570929 -12.253959 41.231405 -48.782713 19.360527 23.810141 -23.770711 22.542413 0.000000 0.000000 0.000000 -7.125000 0.000000 0.000000 -3.204696 5.608481 -2.880803 0.000000 0.000000 0.000000 -7.202919 11.382931 27.316686 -32.193547 -42.700833 -12.871927 -22.581587 -3.327799 36.362685 0.000000 0.000000 0.000000 7.125000 0.000000 0.000000 15.693866 67.938018 -8.736821
-0.458161 17.903106 13.633853 -1.419552 8.870298 -5.790147 0.000000 0.000000 0.000000 -20.915960 -1.804500 -19.989752 3.885468 11.995488 35.731178 0.102487 -2.026638 5.012279 3.566921 -11.509362 -34.081739 0.000000 0.000000 0.000000 18.666628 9.616145 -19.015429 -4.052639 -12.228074 36.546539 -0.054865 1.368329 4.697405 -1.323696 -7.074347 20.024212 -3.061561 0.714351 12.775117 1.474708 0.629389 3.517485 3.174256 0.329536 -3.512870 -2.352766 -0.342323 -13.530779 0.640940 -0.060192 19.477224 0.600116 -0.129392 8.281427 0.000000 0.000000 0.000000 -3.890065 23.686260 -12.993099 41.281222 -48.810930 19.397998 23.579690 -23.680597 22.521198 0.000000 0.000000 0.000000 -7.125000 0.000000 0.000000 -3.346493 5.671702 -3.004525 0.000000 0.000000 0.000000 -7.439183 11.199973 27.902165 -32.440710 -42.894800 -13.040133 -22.176125 -3.674960 36.250640 0.000000 0.000000 0.000000 7.125000 0.000000 0.000000 16.066623 67.709667 -8.860873
-0.467388 17.597373 13.821684 -1.693495 9.579672 -6.518738 0.000000 0.000000 0.000000 -20.912699 -1.049388 -19.929702 4.272658 12.511695 37.571753 -0.033010 -4.129146 -0.655756 4.312816 -12.564513 -37.760881 0.000000 0.000000 0.000000 18.619530 10.220563 -18.723381 -4.229446 -12.458430 37.375451 0.009007 2.637831 2.096016 -0.623173 -4.991620 13.893899 -2.944721 0.471490 12.943505 1.564766 0.324706 3.663134 3.250555 0.174943 -3.428129 -2.303556 -0.245937 -13.114426 0.513753 0.077276 19.212184 0.563435 -0.072193 8.115008 0.000000 0.000000 0.000000 -3.670635 23.793504 -13.742090 41.291489 -48.816725 19.405724 23.304699 -23.537713 22.498417 0.000000 0.000000 0.000000 -7.125000 0.000000 0.000000 -3.515994 5.744226 -3.152502 0.000000 0.000000 0.000000 -7.660365 11.065784 28.440114 -32.762920 -43.146650 -13.259736 -21.461725 -4.148986 36.315656 0.000000 0.000000 0.000000 7.125000 0.000000 0.000000 17.020964 67.555077 -9.340742
-0.484094 17.309461 13.980358 -1.948741 10.394222 -7.312421 0.000000 0.000000 0.000000 -20.870406 -0.709309 -19.359903 4.833328 13.176141 40.061669 0.164666 -4.222922 -6.250226 4.622526 -12.940115 -39.153862 0.000000 0.000000 0.000000 18.611581 10.502327 -17.972302 -4.575177 -12.881665 38.938721 -0.078808 4.190605 -3.627443 -0.238876 -2.458977 6.820806 -2.857155 0.261642 13.425490 1.647054 0.052568 3.692446 3.334332 0.043780 -3.638287 -2.563211 -0.200912 -12.458800 0.793654 0.117457 18.782428 0.700994 -0.041638 7.853056 0.000000 0.000000 0.000000 -3.407440 23.844305 -14.558627 41.098533 -48.707236 19.260712 22.778806 -23.125345 22.605235 0.000000 0.000000 0.000000 -7.125000 0.000000 0.000000 -3.855762 5.722676 -3.460287 0.000000 0.000000 0.000000 -7.759545 11.143289 28.731193 -33.243477 -43.514427 -13.590064 -20.711391 -4.571476 36.382541 0.000000 0.000000 0.000000 7.125000 0.000000 0.000000 18.007851 67.392366 -9.828441
